<svg id="Capa_1" enable-background="new 0 0 512 512" height="512" viewBox="0 0 512 512" width="512" xmlns="http://www.w3.org/2000/svg"><g><path d="m251.982 334.974c67.049 43.216 134.322 12.329 152.146 2.641-12.641-43.837-44.297-79.71-85.288-98.151-14.671-6.6-23.985-21.333-23.985-37.421v-116.885h-77.712v116.761c0 16.091-9.302 30.859-23.991 37.427-38.923 17.403-69.296 50.477-83.121 91.195 20.006-11.096 78.621-36.387 141.951 4.433z" fill="#d9edff"/><path d="m233.674 239.345c14.69-6.568 23.991-21.336 23.991-37.427v-116.76h-40.521v116.761c0 16.091-9.302 30.859-23.991 37.427-38.923 17.403-69.296 50.477-83.121 91.195 8.965-4.972 25.688-12.792 47.11-16.238 15.71-33.222 42.928-59.933 76.532-74.958z" fill="#b4dbff"/><path d="m292.388 0c-7.534 0-65.246 0-72.775 0-7.907 0-13.524 7.699-11.111 15.229l12.973 42.545h69.053l12.973-42.545c2.411-7.53-3.206-15.229-11.113-15.229z" fill="#df7f66"/><path d="m245.642 0c-12.365 0-23.071 0-26.03 0-7.907 0-13.524 7.699-11.111 15.229l12.973 42.545h26.03l-12.973-42.545c-2.413-7.53 3.204-15.229 11.111-15.229z" fill="#d8694b"/><path d="m410.116 378.236c-.18-15.192-2.592-29.854-6.898-43.689-14.298 8.247-82.981 43.219-151.419-1.633-64.343-42.169-123.738-13.783-141.431-3.381-5.502 15.843-8.495 32.859-8.495 50.577 0 38.885 14.4 74.405 38.157 101.521 16.956 19.354 41.499 30.37 67.23 30.37h97.433c25.865 0 50.504-11.139 67.505-30.632 24.002-27.52 38.387-63.643 37.918-103.133z" fill="#bf80e2"/><path d="m180.551 481.629c-37.431-42.722-47.371-101.107-29.663-152.097.009-.005.018-.011.027-.016 2.053-5.908 4.464-11.647 7.19-17.204-22.417 3.74-39.547 12.405-47.738 17.22-5.502 15.843-8.495 32.859-8.495 50.577 0 38.885 14.4 74.405 38.158 101.521 16.957 19.353 41.499 30.37 67.23 30.37h40.521c-25.731 0-50.274-11.017-67.23-30.371z" fill="#b066db"/><path d="m241.692 25.823c4.267 0 7.726-3.459 7.726-7.726v-18.097c-5.521 0-10.839 0-15.453 0v18.097c.001 4.267 3.46 7.726 7.727 7.726z" fill="#d8694b"/><path d="m262.581 0v30.463c0 4.267 3.459 7.726 7.726 7.726s7.726-3.459 7.726-7.726v-30.463c-4.613 0-9.931 0-15.452 0z" fill="#d8694b"/><path d="m295.031 55.713h-78.061c-6.284 0-11.377 5.093-11.377 11.377v8.751c0 6.283 5.094 11.377 11.377 11.377h78.061c6.284 0 11.376-5.094 11.376-11.377v-8.751c0-6.283-5.093-11.377-11.376-11.377z" fill="#b4dbff"/><path d="m241.692 75.841v-8.751c0-6.283 5.094-11.377 11.377-11.377h-36.1c-6.284 0-11.377 5.093-11.377 11.377v8.751c0 6.283 5.094 11.377 11.377 11.377h36.1c-6.283 0-11.377-5.094-11.377-11.377z" fill="#8bcaff"/><circle cx="204.997" cy="380.695" fill="#cc98e9" r="27.14"/><circle cx="286.744" cy="295.819" fill="#bf80e2" r="19.269"/><circle cx="265.819" cy="423.405" fill="#cc98e9" r="15.569"/></g></svg>